Coordinates
version=1
nRows=38
nColumns=38
inDegrees=no

Units are S.I. units (second, meters, Newtons, ...)
If the header above contains a line with 'inDegrees', this indicates whether rotational values are in degrees (yes) or radians (no).

endheader
time	pelvis_tilt	pelvis_list	pelvis_rotation	pelvis_tx	pelvis_ty	pelvis_tz	hip_flexion_r	hip_adduction_r	hip_rotation_r	knee_angle_r	ankle_angle_r	subtalar_angle_r	mtp_angle_r	hip_flexion_l	hip_adduction_l	hip_rotation_l	knee_angle_l	ankle_angle_l	subtalar_angle_l	mtp_angle_l	lumbar_extension	lumbar_bending	lumbar_rotation	arm_flex_r	arm_add_r	arm_rot_r	elbow_flex_r	pro_sup_r	wrist_flex_r	wrist_dev_r	arm_flex_l	arm_add_l	arm_rot_l	elbow_flex_l	pro_sup_l	wrist_flex_l	wrist_dev_l
0.53	-3.01567	1.43849	1.34487	0.73107	0.662406	1.02481	0.225039	0.094234	-0.081482	0.581231	0.259294	0	0	0.612763	-0.153029	-0.16769	0.98794	0.14812	0	0	0.0714804	0.143106	0.120897	0.139167	-0.465798	0.453393	0.824802	1.13184	0	0	-0.124646	-0.16094	0.551189	0.339707	1.35905	0	0
0.54	-3.02355	1.43455	1.34801	0.729894	0.652367	1.02365	0.215198	0.094885	-0.0790084	0.576289	0.263021	0	0	0.619646	-0.153666	-0.17768	0.942753	0.153676	0	0	0.0766831	0.141345	0.126308	0.149333	-0.46906	0.453278	0.839655	1.13426	0	0	-0.129854	-0.158286	0.555942	0.333891	1.35677	0	0
0.55	-3.03087	1.43084	1.35041	0.728701	0.642188	1.02244	0.203784	0.0957679	-0.0742606	0.568236	0.267981	0	0	0.624231	-0.154814	-0.18921	0.893405	0.157486	0	0	0.0815552	0.139641	0.133716	0.156021	-0.473288	0.450463	0.856604	1.13705	0	0	-0.133529	-0.155107	0.560671	0.326059	1.35272	0	0
0.56	-3.03024	1.4274	1.34534	0.72758	0.632003	1.02108	0.192351	0.097494	-0.0697965	0.561217	0.272291	0	0	0.628911	-0.156883	-0.199378	0.84727	0.160466	0	0	0.085563	0.138791	0.140716	0.161715	-0.477641	0.447032	0.873569	1.14049	0	0	-0.136695	-0.152267	0.565305	0.319359	1.3482	0	0
0.57	-3.02646	1.42447	1.3378	0.726622	0.621804	1.01961	0.180733	0.0990754	-0.0658761	0.555097	0.276687	0	0	0.632365	-0.15914	-0.209119	0.802122	0.163558	0	0	0.0886303	0.138203	0.147224	0.166554	-0.482171	0.442681	0.890439	1.14406	0	0	-0.138937	-0.149256	0.571368	0.312425	1.34459	0	0
0.58	-3.0193	1.42357	1.32709	0.725713	0.611465	1.01825	0.165151	0.100786	-0.0602273	0.544784	0.281497	0	0	0.631493	-0.160516	-0.217853	0.755334	0.16556	0	0	0.088306	0.13755	0.156675	0.167162	-0.488874	0.434117	0.911044	1.14275	0	0	-0.139192	-0.144103	0.566605	0.302013	1.35961	0	0
0.59	-3.01248	1.42107	1.31719	0.724836	0.601017	1.01648	0.154183	0.10202	-0.0587955	0.542031	0.284705	0	0	0.634731	-0.162347	-0.226837	0.719583	0.171923	0	0	0.0916721	0.137256	0.161566	0.171378	-0.491681	0.429521	0.924245	1.14754	0	0	-0.142531	-0.142548	0.57459	0.296878	1.35672	0	0
0.6	-3.00644	1.41971	1.30844	0.724046	0.590419	1.01471	0.141929	0.102663	-0.0575671	0.538734	0.288373	0	0	0.636106	-0.162413	-0.235435	0.685365	0.179035	0	0	0.0937281	0.136447	0.167344	0.173417	-0.495042	0.423549	0.937883	1.15207	0	0	-0.144527	-0.140837	0.582171	0.291097	1.35324	0	0
0.61	-2.99948	1.4199	1.29912	0.723352	0.579676	1.01296	0.128728	0.102678	-0.0575405	0.536732	0.29196	0	0	0.635761	-0.161404	-0.243788	0.655408	0.187286	0	0	0.0939765	0.135277	0.173164	0.17425	-0.498475	0.416838	0.951221	1.15647	0	0	-0.145734	-0.139209	0.589856	0.285352	1.3495	0	0
0.62	-2.99422	1.4211	1.29122	0.722636	0.568808	1.0112	0.115579	0.101954	-0.0580473	0.536926	0.295495	0	0	0.634135	-0.160286	-0.253261	0.629772	0.196323	0	0	0.0931678	0.133337	0.179353	0.174179	-0.50159	0.409958	0.963812	1.1611	0	0	-0.146689	-0.138234	0.597871	0.280213	1.34584	0	0
0.63	-2.99201	1.42396	1.28594	0.721945	0.557856	1.00951	0.101831	0.0997989	-0.0596134	0.53949	0.301837	0	0	0.629705	-0.158208	-0.262566	0.605602	0.207839	0	0	0.0895141	0.130036	0.18553	0.176227	-0.507614	0.411104	0.976683	1.15332	0	0	-0.147693	-0.135067	0.584747	0.273926	1.36269	0	0
0.64	-2.98809	1.42725	1.27854	0.721176	0.546811	1.00786	0.0877447	0.097883	-0.0600791	0.541832	0.30597	0	0	0.625522	-0.157169	-0.272143	0.587881	0.216589	0	0	0.0860693	0.126945	0.203266	0.154313	-0.502518	0.360586	0.99355	1.19806	0	0	-0.140212	-0.140815	0.648887	0.269801	1.31508	0	0
0.65	-2.99308	1.42639	1.27972	0.720382	0.535602	1.00582	0.0794589	0.0958502	-0.0591445	0.546911	0.305745	0	0	0.626503	-0.156516	-0.279978	0.575231	0.221486	0	0	0.0892065	0.123479	0.200035	0.170376	-0.509004	0.392977	0.992894	1.16987	0	0	-0.1488	-0.136041	0.605483	0.2649	1.35111	0	0
0.66	-3.00018	1.4272	1.28259	0.719566	0.52422	1.004	0.0700333	0.0926928	-0.0587962	0.553387	0.307749	0	0	0.624588	-0.155135	-0.286821	0.564136	0.225894	0	0	0.0902638	0.119096	0.207456	0.165969	-0.50877	0.384917	0.998464	1.17785	0	0	-0.149341	-0.136701	0.614889	0.259949	1.3445	0	0
0.67	-3.01188	1.42772	1.28989	0.718769	0.512649	1.00224	0.0617718	0.0885764	-0.0583919	0.561293	0.309003	0	0	0.622986	-0.15342	-0.293051	0.557068	0.228072	0	0	0.0923206	0.113997	0.214646	0.160578	-0.507857	0.377747	1.00201	1.18594	0	0	-0.150368	-0.137915	0.623729	0.255361	1.33745	0	0
0.68	-3.03215	1.42653	1.30646	0.718107	0.500871	1.00037	0.0573182	0.0828031	-0.0605919	0.574048	0.311859	0	0	0.623579	-0.150505	-0.297369	0.554294	0.227822	0	0	0.0973414	0.107916	0.215875	0.163384	-0.509758	0.391355	1.00059	1.17415	0	0	-0.155359	-0.135925	0.599597	0.249507	1.35735	0	0
0.69	-3.05066	1.42628	1.32126	0.717468	0.488823	0.998747	0.0507819	0.0768718	-0.0616377	0.583867	0.309805	0	0	0.62282	-0.148211	-0.302272	0.556214	0.225942	0	0	0.10305	0.102598	0.23174	0.135489	-0.498448	0.341433	1.00542	1.22557	0	0	-0.149638	-0.146174	0.693598	0.247831	1.27079	0	0
0.7	-3.06708	1.42571	1.33346	0.716802	0.476534	0.997163	0.0444938	0.0712206	-0.0608919	0.593477	0.305961	0	0	0.622185	-0.14669	-0.305828	0.56279	0.223798	0	0	0.107948	0.0969744	0.234215	0.131588	-0.496876	0.345295	1.00259	1.2248	0	0	-0.154264	-0.146391	0.683509	0.243771	1.27599	0	0
0.71	-3.08036	1.42528	1.34231	0.716066	0.464012	0.99567	0.0385327	0.065949	-0.0592179	0.604143	0.300461	0	0	0.620962	-0.145622	-0.307068	0.573106	0.219467	0	0	0.112908	0.0918008	0.235881	0.127211	-0.494694	0.350107	0.99857	1.22259	0	0	-0.15961	-0.147011	0.671765	0.240342	1.28158	0	0
0.72	-3.09391	1.42557	1.3515	0.715335	0.451239	0.994318	0.0327431	0.0602636	-0.0571009	0.616957	0.292688	0	0	0.617994	-0.144525	-0.307315	0.585697	0.208226	0	0	0.117667	0.0865023	0.236903	0.122073	-0.492007	0.355663	0.993291	1.21918	0	0	-0.165035	-0.147437	0.658282	0.236433	1.28743	0	0
0.73	-3.10916	1.42627	1.36307	0.714687	0.438286	0.993199	0.0262309	0.0545865	-0.0528587	0.627402	0.286548	0	0	0.61333	-0.14214	-0.304912	0.597685	0.197028	0	0	0.121197	0.0802824	0.237204	0.115217	-0.488727	0.359723	0.988348	1.21589	0	0	-0.169263	-0.148156	0.647999	0.231875	1.29296	0	0
0.74	3.13087	1.42693	1.40292	0.714105	0.425191	0.992478	0.0237772	0.0441065	-0.0504687	0.645047	0.272765	0	0	0.609194	-0.136935	-0.3101	0.609635	0.172075	0	0	0.129501	0.0702257	0.243186	0.0967111	-0.474042	0.335937	0.976635	1.25366	0	0	-0.167743	-0.159205	0.739063	0.231363	1.19838	0	0
0.75	3.06086	1.43022	1.47123	0.713653	0.412097	0.992514	0.0206603	0.0293961	-0.0473294	0.66677	0.256926	0	0	0.6031	-0.127931	-0.318527	0.621339	0.153862	0	0	0.131463	0.0524972	0.241007	0.0928095	-0.463278	0.341049	0.959286	1.25757	0	0	-0.170698	-0.162406	0.728939	0.226406	1.20438	0	0
0.76	2.99062	1.43215	1.54265	0.713353	0.398962	0.992969	0.0182486	0.0164889	-0.0409785	0.686043	0.243808	0	0	0.598668	-0.118716	-0.318644	0.633148	0.142671	0	0	0.132909	0.0343491	0.237954	0.0860212	-0.453304	0.344187	0.943648	1.25874	0	0	-0.17162	-0.166239	0.720931	0.220882	1.20969	0	0
0.77	2.91112	1.43493	1.62606	0.713274	0.385878	0.993906	0.0167785	0.00304551	-0.0336092	0.709864	0.229171	0	0	0.592111	-0.108013	-0.314068	0.644697	0.132634	0	0	0.131563	0.0145242	0.234417	0.0773309	-0.443687	0.345564	0.928375	1.25496	0	0	-0.168842	-0.171216	0.728909	0.214385	1.20436	0	0
0.78	2.83403	1.43308	1.70988	0.713573	0.372865	0.994735	0.0238955	-0.0103291	-0.0272261	0.741252	0.20605	0	0	0.589755	-0.094241	-0.302697	0.655297	0.124092	0	0	0.136046	-0.0046026	0.227308	0.0672624	-0.430575	0.342956	0.908609	1.26336	0	0	-0.167014	-0.177883	0.754624	0.208882	1.18838	0	0
0.79	2.77435	1.42929	1.77919	0.714351	0.359923	0.995502	0.0360071	-0.021999	-0.0228627	0.776877	0.17646	0	0	0.589782	-0.078989	-0.286963	0.666049	0.117975	0	0	0.139804	-0.0221117	0.20947	0.0675155	-0.424155	0.367219	0.887858	1.24397	0	0	-0.1711	-0.176052	0.685095	0.199728	1.26925	0	0
0.8	2.73691	1.42381	1.82734	0.715288	0.34707	0.996217	0.0530773	-0.0308746	-0.017902	0.814806	0.136536	0	0	0.591404	-0.0649934	-0.271558	0.675414	0.110637	0	0	0.148907	-0.0336333	0.200336	0.0497905	-0.412701	0.356487	0.871254	1.26087	0	0	-0.16552	-0.188265	0.786797	0.202023	1.1608	0	0
0.81	2.71319	1.42106	1.86178	0.716344	0.334421	0.997099	0.0700268	-0.0369514	-0.0120638	0.853483	0.0932189	0	0	0.588597	-0.054047	-0.260601	0.681421	0.103226	0	0	0.150163	-0.0432456	0.18353	0.0414226	-0.407431	0.366413	0.857366	1.25424	0	0	-0.164102	-0.189584	0.76843	0.199092	1.17345	0	0
0.82	2.69847	1.41969	1.88619	0.71743	0.321975	0.998074	0.0881661	-0.0410089	-0.00512225	0.892683	0.052494	0	0	0.581485	-0.0457129	-0.255065	0.682726	0.0975955	0	0	0.149851	-0.0497957	0.17239	0.0232021	-0.397628	0.350416	0.846919	1.27164	0	0	-0.158537	-0.194037	0.789065	0.198523	1.15831	0	0
0.83	2.6947	1.41677	1.898	0.718473	0.309759	0.998874	0.110888	-0.0434983	0.0029533	0.932259	0.00325188	0	0	0.574334	-0.0391389	-0.253276	0.682535	0.095796	0	0	0.153163	-0.053913	0.161377	0.00929481	-0.393451	0.352818	0.834341	1.26514	0	0	-0.154233	-0.198937	0.815468	0.199551	1.14211	0	0
0.84	2.69638	1.41251	1.90304	0.719418	0.297867	0.999509	0.137965	-0.0448878	0.0116163	0.973498	-0.0488162	0	0	0.567922	-0.0334254	-0.254678	0.683432	0.0980265	0	0	0.154679	-0.0586073	0.129983	0.0327678	-0.40979	0.454111	0.813557	1.15876	0	0	-0.163818	-0.184163	0.625346	0.188985	1.32452	0	0
0.85	2.68411	1.41301	1.92071	0.720216	0.286306	1.0007	0.160592	-0.0458719	0.0206377	1.01318	-0.102993	0	0	0.554357	-0.0283774	-0.262431	0.684108	0.103298	0	0	0.152225	-0.0609701	0.130173	0.00248586	-0.395273	0.406367	0.804723	1.2053	0	0	-0.149816	-0.197579	0.744653	0.197124	1.21552	0	0
0.86	2.66854	1.4131	1.94068	0.720992	0.275049	1.00191	0.185644	-0.0469936	0.029793	1.05415	-0.154539	0	0	0.540395	-0.0227042	-0.271264	0.685415	0.110923	0	0	0.148483	-0.0641227	0.120711	-0.00794585	-0.390357	0.408916	0.79019	1.20112	0	0	-0.14175	-0.202655	0.762855	0.2024	1.19219	0	0
0.87	2.64634	1.41447	1.96663	0.721732	0.264013	1.00332	0.210408	-0.0485694	0.0382913	1.09417	-0.209144	0	0	0.524076	-0.0167831	-0.28124	0.6868	0.120183	0	0	0.143046	-0.0674291	0.111488	-0.0154627	-0.386502	0.418527	0.773321	1.19224	0	0	-0.13313	-0.208082	0.779529	0.208781	1.17399	0	0
0.88	2.62063	1.41684	1.99577	0.722406	0.253128	1.00481	0.234924	-0.0502869	0.0458861	1.13356	-0.255619	0	0	0.506039	-0.0111035	-0.290925	0.687482	0.129508	0	0	0.135942	-0.0702749	0.101189	-0.0208026	-0.383396	0.432486	0.756021	1.18024	0	0	-0.124319	-0.213565	0.78904	0.216817	1.15429	0	0
0.89	2.59877	1.41889	2.02112	0.723078	0.242358	1.00619	0.260707	-0.051751	0.0517574	1.17286	-0.281579	0	0	0.488701	-0.00589039	-0.297845	0.687439	0.138136	0	0	0.12596	-0.0732032	0.0724748	0.00114833	-0.391013	0.51493	0.732731	1.11431	0	0	-0.130604	-0.202432	0.604524	0.218371	1.31514	0	0
0.9	2.5773	1.42216	2.04582	0.723645	0.231664	1.00765	0.286031	-0.0528032	0.0554001	1.21209	-0.28712	0	0	0.470134	-0.00177289	-0.301547	0.68544	0.14642	0	0	0.120026	-0.0740886	0.057522	0.00663914	-0.391101	0.560799	0.708668	1.092	0	0	-0.127119	-0.210577	0.610384	0.234207	1.30399	0	0
